<svg width="38" height="38" viewBox="0 0 38 38" fill="none" xmlns="http://www.w3.org/2000/svg">
<path fill-rule="evenodd" clip-rule="evenodd" d="M35.7707 15.0831C38.333 17.0658 38.333 20.9342 35.7707 22.9169C28.027 28.9086 19.38 33.6314 10.1535 36.9083L8.46798 37.5069C5.24327 38.6522 1.83712 36.4704 1.40056 33.1417C0.180813 23.8411 0.180814 14.1588 1.40056 4.8583C1.83712 1.52955 5.24328 -0.652233 8.46798 0.493063L10.1535 1.09171C19.38 4.36862 28.027 9.09135 35.7707 15.0831ZM33.3993 19.8522C33.9568 19.4208 33.9568 18.5792 33.3993 18.1478C25.9804 12.4074 17.6962 7.88271 8.85665 4.74324L7.17109 4.1446C6.33164 3.84645 5.36693 4.41467 5.24266 5.36218C4.06679 14.3282 4.06679 23.6717 5.24266 32.6378C5.36693 33.5853 6.33164 34.1535 7.17109 33.8554L8.85665 33.2567C17.6961 30.1173 25.9804 25.5926 33.3993 19.8522Z" fill="#242424"/>
</svg>
