<svg width="22" height="25" viewBox="0 0 22 25" fill="none" xmlns="http://www.w3.org/2000/svg">
<path d="M3.72726 6.88363C3.4403 6.80792 3.20179 6.60866 3.07624 6.33975C2.95069 6.07083 2.95108 5.76004 3.07729 5.49144L5.29163 0.778919C5.45664 0.427738 5.80991 0.203715 6.19793 0.204194C6.58595 0.204675 6.93866 0.429571 7.10281 0.781159L8.07964 2.87347C8.11457 2.85975 8.15063 2.84784 8.18773 2.8379C13.9842 1.28474 19.9422 4.72462 21.4954 10.5211C23.0486 16.3176 19.6087 22.2756 13.8122 23.8288C8.01575 25.3819 2.0577 21.942 0.504546 16.1456C0.0106488 14.3023 0.0217597 12.4398 0.454337 10.7082C0.588189 10.1723 1.13106 9.84648 1.66688 9.98034C2.2027 10.1142 2.52856 10.6571 2.39471 11.1929C2.04232 12.6035 2.03261 14.121 2.4364 15.6279C3.70367 20.3575 8.56505 23.1642 13.2946 21.8969C18.0241 20.6296 20.8308 15.7683 19.5636 11.0387C18.317 6.38652 13.5929 3.59478 8.93745 4.71085L9.92304 6.82192C10.0872 7.1735 10.0331 7.58831 9.78436 7.88608C9.53559 8.18386 9.13701 8.31085 8.76183 8.21187L3.72726 6.88363Z" fill="#242424"/>
</svg>
