<svg width="22" height="18" viewBox="0 0 22 18" fill="none" xmlns="http://www.w3.org/2000/svg">
<path d="M16.9596 0.292893C16.5691 0.683417 16.5691 1.31658 16.9596 1.70711L17.9191 2.66667H12.8357C11.9413 2.66667 11.1256 3.17791 10.7357 3.98283L10.4552 4.56192C10.3841 4.70876 10.3841 4.88007 10.4552 5.02691L11.2138 6.5929C11.3109 6.79346 11.5966 6.79346 11.6938 6.5929L12.5357 4.85469C12.5914 4.7397 12.7079 4.66667 12.8357 4.66667H17.9191L16.9596 5.62623C16.5691 6.01675 16.5691 6.64992 16.9596 7.04044C17.3501 7.43096 17.9833 7.43096 18.3738 7.04044L21.0405 4.37377C21.431 3.98325 21.431 3.35008 21.0405 2.95956L18.3738 0.292893C17.9833 -0.0976311 17.3501 -0.0976311 16.9596 0.292893Z" fill="#242424"/>
<path d="M8.37812 13.4381C8.44924 13.2912 8.44924 13.1199 8.37812 12.9731L7.61959 11.4071C7.52245 11.2065 7.23675 11.2065 7.1396 11.4071L6.29766 13.1453C6.24196 13.2603 6.12543 13.3333 5.99766 13.3333H1.66667C1.11439 13.3333 0.666672 13.781 0.666672 14.3333C0.666672 14.8856 1.11439 15.3333 1.66667 15.3333H5.99766C6.89205 15.3333 7.70773 14.8221 8.09762 14.0172L8.37812 13.4381Z" fill="#242424"/>
<path d="M16.9596 17.7071C16.5691 17.3166 16.5691 16.6834 16.9596 16.2929L17.9191 15.3333H12.8357C11.9413 15.3333 11.1256 14.8221 10.7357 14.0172L6.29766 4.85469C6.24196 4.7397 6.12543 4.66667 5.99766 4.66667H1.66667C1.11439 4.66667 0.666672 4.21895 0.666672 3.66667C0.666672 3.11438 1.11439 2.66667 1.66667 2.66667H5.99766C6.89205 2.66667 7.70773 3.1779 8.09762 3.98283L12.5357 13.1453C12.5914 13.2603 12.7079 13.3333 12.8357 13.3333H17.9191L16.9596 12.3738C16.5691 11.9832 16.5691 11.3501 16.9596 10.9596C17.3501 10.569 17.9833 10.569 18.3738 10.9596L21.0405 13.6262C21.431 14.0168 21.431 14.6499 21.0405 15.0404L18.3738 17.7071C17.9833 18.0976 17.3501 18.0976 16.9596 17.7071Z" fill="#242424"/>
</svg>
