<svg width="29" height="24" viewBox="0 0 29 24" fill="none" xmlns="http://www.w3.org/2000/svg">
<path d="M3.5 2C3.5 1.17157 2.82843 0.5 2 0.5C1.17157 0.5 0.5 1.17157 0.5 2V22C0.5 22.8284 1.17157 23.5 2 23.5C2.82843 23.5 3.5 22.8284 3.5 22V2Z" fill="#242424"/>
<path fill-rule="evenodd" clip-rule="evenodd" d="M8.78628 14.505C7.14757 13.237 7.14757 10.763 8.78628 9.49505C13.1044 6.15383 17.9262 3.52027 23.0712 1.69295L24.0033 1.3619C26.0504 0.634867 28.204 2.01984 28.48 4.12398C29.1593 9.30415 29.1593 14.6959 28.48 19.876C28.204 21.9802 26.0504 23.3652 24.0033 22.6381L23.0712 22.3071C17.9262 20.4798 13.1044 17.8462 8.78628 14.505ZM10.6222 11.8677C10.5356 11.9347 10.5356 12.0653 10.6222 12.1323C14.6888 15.279 19.2299 17.7592 24.0753 19.4801L25.0074 19.8111C25.2078 19.8823 25.4713 19.7465 25.5054 19.4859C26.1508 14.5647 26.1508 9.43529 25.5054 4.51409C25.4712 4.25348 25.2078 4.11772 25.0074 4.1889L24.0753 4.51995C19.2299 6.24085 14.6888 8.72106 10.6222 11.8677Z" fill="#242424"/>
</svg>
