<svg width="29" height="24" viewBox="0 0 29 24" fill="none" xmlns="http://www.w3.org/2000/svg">
<path fill-rule="evenodd" clip-rule="evenodd" d="M20.2138 9.49504C21.8525 10.763 21.8525 13.237 20.2138 14.505C15.8956 17.8462 11.0738 20.4797 5.9288 22.3071L4.99669 22.6381C2.94964 23.3651 0.796028 21.9802 0.520075 19.876C-0.15929 14.6959 -0.15929 9.30413 0.520076 4.12397C0.796029 2.01983 2.94964 0.634855 4.99669 1.36189L5.92879 1.69294C11.0738 3.52026 15.8956 6.15382 20.2138 9.49504ZM18.3779 12.1323C18.4644 12.0653 18.4644 11.9347 18.3779 11.8677C14.3112 8.72105 9.77015 6.24084 4.92475 4.51993L3.99265 4.18889C3.79224 4.11771 3.52878 4.25347 3.49461 4.51408C2.8492 9.43528 2.8492 14.5647 3.4946 19.4859C3.52878 19.7465 3.79224 19.8823 3.99265 19.8111L4.92475 19.4801C9.77015 17.7592 14.3112 15.279 18.3779 12.1323Z" fill="#242424"/>
<path fill-rule="evenodd" clip-rule="evenodd" d="M27 0.5C27.8284 0.5 28.5 1.17157 28.5 2V22C28.5 22.8284 27.8284 23.5 27 23.5C26.1716 23.5 25.5 22.8284 25.5 22V2C25.5 1.17157 26.1716 0.5 27 0.5Z" fill="#242424"/>
</svg>
